<?xml version="1.0" encoding="utf-8"?>
<!-- Generator: Adobe Illustrator 24.1.1, SVG Export Plug-In . SVG Version: 6.00 Build 0)  -->
<svg version="1.1" id="Layer_1" xmlns="http://www.w3.org/2000/svg" xmlns:xlink="http://www.w3.org/1999/xlink" x="0px" y="0px"
	 viewBox="0 0 64 72" style="enable-background:new 0 0 64 72;" xml:space="preserve">
<style type="text/css">
	.st0{fill:#F1DAD4;}
	.st1{fill:#745856;}
	.st2{fill:#886F6C;}
	.st3{fill:#F2B4AD;}
	.st4{fill:#778B7C;}
</style>
<g>
	<path class="st0" d="M32.15,3.97c0,0,0.66,0.49,0.66,1.52"/>
</g>
<g>
	<path class="st0" d="M1.36,46.63c0-5.18,5.27-9.42,10.45-9.42c0,0,7.82-1.1,20.19-1.1c12.37,0,20.19,1.1,20.19,1.1
		c5.18,0,10.45,4.24,10.45,9.42"/>
	<path class="st1" d="M4.02,44.65c-2.18,0.49-3.34,2.16-2.55,3.64C5.5,55.58,10.01,62.76,11.76,71c2.02,0,3.04,0,5.06,0
		c-1.26-8.37-4.66-16.19-7.71-24.03C8.47,45.26,6.2,44.17,4.02,44.65z"/>
	<path class="st1" d="M19.95,42.13c-2.21,0.21-3.64,2.03-3.19,3.91c2.04,8.24,4.29,16.48,5.12,24.96c2.02,0,3.04,0,5.06,0
		c-0.42-8.54-1.53-17.03-2.55-25.51C24.16,43.52,22.16,41.93,19.95,42.13z"/>
	<path class="st2" d="M27.98,41.63c-2.22,0.07-3.82,1.89-3.59,3.86c1.02,8.49,2.12,16.97,2.55,25.51c2.02,0,3.04,0,5.06,0
		c0-8.57,0-17.14,0-25.71C32,43.29,30.2,41.56,27.98,41.63z"/>
	<path class="st1" d="M36.02,41.63C33.8,41.56,32,43.29,32,45.29c0,8.57,0,17.14,0,25.71c2.02,0,3.04,0,5.06,0
		c0.42-8.54,1.53-17.03,2.55-25.51C39.84,43.52,38.24,41.7,36.02,41.63z"/>
	<path class="st2" d="M44.05,42.13c-2.21-0.21-4.21,1.38-4.44,3.35c-1.02,8.49-2.12,16.97-2.55,25.51c2.02,0,3.04,0,5.06,0
		c0.83-8.47,3.08-16.72,5.12-24.96C47.69,44.17,46.26,42.34,44.05,42.13z"/>
	<path class="st1" d="M52.04,43.14c-2.2-0.35-4.35,1.03-4.8,2.9C45.2,54.28,42.95,62.53,42.12,71c2.02,0,3.04,0,5.06,0
		c1.26-8.37,4.66-16.19,7.71-24.03C55.53,45.26,54.24,43.49,52.04,43.14z"/>
	<path class="st2" d="M59.98,44.65c-2.18-0.49-4.45,0.61-5.09,2.32c-3.05,7.84-6.45,15.66-7.71,24.03c2.02,0,3.04,0,5.06,0
		c1.74-8.24,6.26-15.42,10.28-22.7C63.32,46.81,62.16,45.14,59.98,44.65z"/>
	<path class="st2" d="M11.96,43.14c-2.2,0.35-3.48,2.12-2.85,3.83c3.05,7.84,6.45,15.66,7.71,24.03c2.02,0,3.04,0,5.06,0
		c-0.83-8.47-3.08-16.72-5.12-24.96C16.31,44.17,14.16,42.79,11.96,43.14z"/>
	<g>
		<path class="st3" d="M7.88,40.94c-2.5-0.85-4.12-3.05-3.55-7.01c0.65-4.47,5.72-4.83,5.72-4.83s-2.83-1.97-2.33-5.68
			c0.82-6.04,7.69-4.65,7.69-4.65s-2.88-2.17-1.73-5.31c1.09-2.98,3.62-2.24,8.13-3.84c5.55-1.98,9.45-5.22,6.98-8.61
			c0,0,8.52,1.39,7.49,6.59c0,0,7.6,0,10.27,4.41c2.67,4.41-0.24,6.77-0.24,6.77s5.54-1.63,7.73,2.47c2.3,4.29-0.66,6.23-0.66,6.23
			s5.26,1.21,6.35,5.2c1.09,3.99-0.13,7.92-5.02,8.71c-4.89,0.79-10.27-2.97-23.99-2.3C17,39.73,10.38,41.78,7.88,40.94z"/>
		<path class="st4" d="M5.84,36.1c0,0,0-0.05-0.01-0.14c-0.01-0.09-0.01-0.23,0-0.42c0.02-0.37,0.1-0.93,0.44-1.56
			c0.34-0.63,0.93-1.3,1.76-1.85c0.82-0.56,1.84-1.04,2.98-1.4c1.14-0.37,2.41-0.68,3.76-0.88c1.35-0.21,2.78-0.36,4.26-0.44
			c1.48-0.08,3.01-0.09,4.56-0.05c1.55,0.04,3.14,0.15,4.69,0.3c1.55,0.14,3.09,0.27,4.61,0.37c1.52,0.11,3.02,0.19,4.46,0.24
			c1.45,0.06,2.84,0.08,4.17,0.07c1.32-0.02,2.57-0.08,3.72-0.17c1.15-0.11,2.19-0.26,3.1-0.44c0.91-0.2,1.69-0.44,2.31-0.69
			c0.62-0.26,1.08-0.52,1.38-0.72c0.15-0.1,0.26-0.19,0.34-0.24c0.08-0.06,0.11-0.09,0.11-0.09s-0.03,0.04-0.09,0.11
			c-0.06,0.07-0.15,0.18-0.29,0.31c-0.26,0.26-0.68,0.62-1.28,0.97c-0.6,0.36-1.37,0.73-2.29,1.05c-0.92,0.32-1.98,0.6-3.15,0.82
			c-1.17,0.23-2.45,0.39-3.8,0.5c-1.35,0.12-2.78,0.18-4.26,0.19c-1.48,0.01-3-0.03-4.55-0.11c-1.54-0.08-3.12-0.2-4.67-0.36
			c-1.55-0.16-3.07-0.29-4.59-0.37c-1.51-0.08-3.01-0.12-4.45-0.12c-1.44,0.01-2.83,0.05-4.15,0.17c-1.31,0.13-2.54,0.28-3.65,0.54
			c-1.11,0.26-2.1,0.58-2.91,1.01c-0.8,0.43-1.43,0.94-1.81,1.47C6.18,34.69,6,35.2,5.93,35.55c-0.04,0.18-0.06,0.31-0.07,0.41
			C5.85,36.05,5.84,36.1,5.84,36.1z"/>
		<path class="st4" d="M10.05,21.78c0,0,0.02-0.03,0.05-0.1c0.03-0.06,0.09-0.16,0.17-0.27c0.16-0.23,0.42-0.57,0.87-0.9
			c0.44-0.33,1.1-0.6,1.86-0.7c0.77-0.12,1.63-0.07,2.54,0.04c0.91,0.12,1.86,0.32,2.86,0.53c0.98,0.23,2.02,0.47,3.09,0.73
			c1.06,0.25,2.16,0.49,3.28,0.7c1.12,0.22,2.25,0.4,3.4,0.54c0.29,0.04,0.57,0.07,0.86,0.1c0.28,0.04,0.57,0.05,0.86,0.08
			c0.57,0.04,1.13,0.08,1.7,0.09c1.13,0.03,2.26,0.03,3.34-0.03c1.08-0.07,2.12-0.17,3.11-0.31c0.98-0.14,1.9-0.35,2.74-0.56
			c1.68-0.44,3.02-1.02,3.84-1.61c0.42-0.29,0.71-0.56,0.88-0.78c0.1-0.1,0.15-0.19,0.19-0.25c0.04-0.06,0.06-0.09,0.06-0.09
			s-0.02,0.03-0.05,0.1c-0.03,0.06-0.07,0.17-0.15,0.28c-0.14,0.24-0.39,0.58-0.77,0.94c-0.77,0.73-2.08,1.53-3.77,2.18
			c-0.84,0.33-1.78,0.6-2.78,0.85c-1,0.25-2.08,0.44-3.2,0.58c-1.12,0.14-2.28,0.23-3.47,0.25c-0.59,0.01-1.19,0.01-1.8-0.01
			c-0.58-0.02-1.2-0.05-1.8-0.1c-1.2-0.1-2.4-0.26-3.56-0.48c-1.16-0.22-2.29-0.5-3.37-0.8c-1.08-0.3-2.1-0.62-3.06-0.93
			c-0.96-0.32-1.86-0.61-2.69-0.83c-0.83-0.24-1.59-0.37-2.26-0.41c-0.67-0.04-1.24,0.08-1.7,0.26c-0.45,0.19-0.77,0.43-0.98,0.6
			C10.16,21.67,10.05,21.78,10.05,21.78z"/>
		<path class="st4" d="M15.54,14.08c0,0,0-0.09,0.07-0.27c0.06-0.17,0.22-0.41,0.49-0.62c0.54-0.45,1.45-0.81,2.55-1.1
			c0.55-0.13,1.15-0.27,1.79-0.37c0.64-0.11,1.31-0.21,2-0.29c0.69-0.08,1.41-0.17,2.14-0.23c0.73-0.07,1.46-0.14,2.2-0.2
			c0.37-0.04,0.74-0.06,1.1-0.11c0.37-0.04,0.73-0.09,1.08-0.15c0.71-0.11,1.4-0.26,2.06-0.43c1.32-0.34,2.51-0.84,3.32-1.54
			c0.4-0.35,0.69-0.75,0.85-1.15c0.16-0.4,0.19-0.79,0.17-1.11c-0.02-0.32-0.09-0.57-0.14-0.73c-0.05-0.17-0.09-0.25-0.09-0.25
			s0.05,0.08,0.12,0.24c0.07,0.16,0.17,0.4,0.24,0.73c0.06,0.33,0.07,0.75-0.05,1.21c-0.07,0.23-0.17,0.46-0.3,0.7
			C35,8.64,34.83,8.87,34.63,9.08c-0.82,0.85-2.05,1.47-3.4,1.92c-0.68,0.23-1.39,0.4-2.12,0.56c-0.37,0.08-0.74,0.15-1.1,0.21
			c-0.37,0.07-0.74,0.13-1.11,0.19c-0.74,0.13-1.48,0.22-2.21,0.3c-0.73,0.09-1.45,0.15-2.14,0.22c-0.69,0.06-1.36,0.12-1.99,0.18
			c-0.63,0.07-1.23,0.11-1.77,0.18c-1.09,0.13-1.98,0.31-2.54,0.58c-0.28,0.13-0.47,0.3-0.57,0.43
			C15.57,13.99,15.54,14.08,15.54,14.08z"/>
	</g>
	<g>
		<path class="st0" d="M37.04,14.11c0,0,1.2,0.89,1.21,2.77"/>
	</g>
	<g>
		<path class="st0" d="M15.77,26.39c0,0-1.44,0.39-2.92-0.76"/>
	</g>
	<g>
		<path class="st0" d="M8.62,37.62c0,0,1.01-1.1,2.87-0.93"/>
	</g>
	<g>
		<path class="st0" d="M19.17,34.04c0,0,1.39,0.56,1.88,2.36"/>
	</g>
	<g>
		<path class="st0" d="M29.52,36.26c0,0,1.3-0.74,3.02,0.01"/>
	</g>
	<g>
		<path class="st0" d="M41.77,37.37c0,0-1.33-0.68-1.65-2.53"/>
	</g>
	<g>
		<path class="st0" d="M51.84,37.95c0,0-1.49,0.12-2.74-1.27"/>
	</g>
	<g>
		<path class="st0" d="M56.08,30.55c0,0-0.35,1.45-2.07,2.2"/>
	</g>
	<g>
		<path class="st0" d="M25.05,19.24c0,0,0.35-1.45,2.08-2.19"/>
	</g>
	<g>
		<path class="st0" d="M25.89,26.38c0,0-0.74,1.3-2.6,1.54"/>
	</g>
	<g>
		<path class="st0" d="M34.17,27.34c0,0,0.86-1.22,2.74-1.27"/>
	</g>
	<g>
		<path class="st0" d="M44.88,28.16c0,0-1.08-1.04-0.85-2.9"/>
	</g>
	<g>
		<path class="st0" d="M49.45,23.7c0,0,1.46-0.3,2.87,0.94"/>
	</g>
</g>
<g>
	<path class="st0" d="M95.19,39.46c-0.16,0-0.33-0.01-0.49-0.02c-2.91-0.28-4.34-2.89-5.14-5.4c-0.34-1.07-0.6-2.19-0.78-3.37
		c-0.18-1.18-0.27-2.38-0.29-3.59c-0.01-1.22,0.04-2.37,0.18-3.47c-0.29,0.03-0.62,0.07-0.98,0.11c-0.36,0.04-0.7,0.18-1.03,0.4
		c-0.33,0.22-0.62,0.57-0.87,1.04c-0.25,0.48-0.4,1.15-0.46,2.01c-0.01,0.18-0.08,0.32-0.21,0.44c-0.12,0.12-0.27,0.18-0.45,0.18
		c-0.21,0-0.37-0.07-0.48-0.21c-0.12-0.14-0.18-0.3-0.18-0.49c0.12-1.66,0.59-2.85,1.41-3.59c0.82-0.74,1.98-1.15,3.47-1.22
		c0.22-1.07,0.53-2.03,0.93-2.88c0.4-0.85,0.87-1.57,1.41-2.15c0.53-0.59,1.12-1.03,1.77-1.34c0.64-0.31,1.33-0.46,2.04-0.46
		c0.6,0,1.18,0.1,1.75,0.31c0.56,0.21,1.07,0.48,1.51,0.84c0.44,0.35,0.79,0.76,1.06,1.23c0.26,0.47,0.4,0.96,0.4,1.47
		c0,0.51-0.13,1.01-0.4,1.49c-0.44,0.79-0.96,1.38-1.56,1.78c-0.6,0.4-1.26,0.67-1.98,0.82c-0.72,0.15-1.47,0.23-2.26,0.22
		s-1.6-0.02-2.42-0.03c-0.21,1.01-0.31,2.07-0.32,3.19c-0.01,1.11,0.06,2.22,0.2,3.31c0.14,1.09,0.35,2.13,0.63,3.11
		c0.28,0.98,0.6,1.85,0.97,2.61c0.37,0.75,0.77,1.35,1.21,1.79s0.9,0.66,1.38,0.66c1.41,0,2.83-1.12,4.26-3.36
		c0.62-0.98,1.17-2.03,1.67-3.15c0.42-0.94,0.75-2.61,1.47-3.37c0.25-0.27,0.72-0.37,0.98-0.11c0.3,0.29,0.15,0.79-0.02,1.17
		c-0.91,2.1-1.77,4.24-3.01,6.17C99.29,37.54,97.69,39.46,95.19,39.46z M91.36,22.23c0.35,0.03,0.77,0.06,1.25,0.08
		c0.48,0.02,0.99,0.01,1.52-0.02c0.53-0.04,1.04-0.11,1.55-0.23c0.51-0.12,0.96-0.29,1.37-0.53c0.41-0.23,0.74-0.53,0.99-0.9
		c0.25-0.37,0.37-0.82,0.37-1.36c0-0.35-0.1-0.68-0.29-0.98c-0.19-0.3-0.45-0.57-0.77-0.8c-0.32-0.23-0.69-0.42-1.09-0.55
		c-0.4-0.13-0.82-0.2-1.24-0.2c-0.32,0-0.66,0.12-1,0.37c-0.34,0.25-0.68,0.61-1.01,1.08c-0.33,0.47-0.64,1.04-0.92,1.73
		C91.82,20.59,91.57,21.36,91.36,22.23z"/>
	<path class="st0" d="M110.27,38.44c-0.12,0-0.25-0.02-0.37-0.06c-0.58-0.2-0.88-0.84-1.04-1.43c-0.33-1.16-0.44-2.38-0.31-3.58
		c-0.81,1.23-1.88,2.54-3.34,2.59c-1.29,0.04-2.42-0.99-2.89-2.19c-0.47-1.2-0.4-2.53-0.27-3.81c0.07-0.64,0.2-1.36,0.73-1.72
		c1.67-1.14,1.57,2.45,1.55,3.08c-0.02,0.57-0.03,1.1-0.01,1.59c0.01,0.49,0.08,0.9,0.2,1.22c0.12,0.32,0.34,0.48,0.66,0.48
		c0.5,0,0.99-0.29,1.48-0.88c0.49-0.59,0.96-1.43,1.4-2.53c0.18-0.45,0.33-0.9,0.47-1.35c0.14-0.45,0.25-0.84,0.34-1.19
		c0.09-0.34,0.18-0.74,0.29-1.18c0.03-0.18,0.12-0.31,0.26-0.4c0.15-0.09,0.31-0.13,0.48-0.13c0.34,0,0.58,0.25,0.73,0.75
		c0.15,0.5,0.22,1.12,0.23,1.87c0.01,0.75-0.03,1.56-0.1,2.44c-0.07,0.88-0.15,1.69-0.24,2.44c-0.09,0.75-0.16,1.37-0.22,1.87
		c-0.06,0.5-0.06,0.75,0,0.75c0.03-0.01,0.1-0.06,0.21-0.14c0.11-0.08,0.26-0.26,0.46-0.54c0.2-0.28,0.43-0.69,0.69-1.23
		c0.26-0.54,0.56-1.28,0.9-2.2c0.19-0.54,0.37-1.08,0.54-1.62c0.17-0.53,0.31-1.01,0.43-1.43c0.12-0.42,0.25-0.88,0.4-1.4
		c0.04-0.18,0.14-0.31,0.3-0.41c0.15-0.1,0.32-0.12,0.49-0.08c0.18,0.04,0.31,0.14,0.41,0.3c0.1,0.15,0.12,0.32,0.08,0.49
		c0,0.03-0.04,0.18-0.11,0.45c-0.07,0.27-0.17,0.62-0.3,1.04c-0.69,2.37-1.42,4.72-2.79,6.81
		C111.59,37.77,110.96,38.43,110.27,38.44z"/>
	<path class="st0" d="M124.8,28.63c0,0.03,0,0.06-0.01,0.08c-0.01,0.02-0.01,0.05-0.01,0.08c-0.43,1.77-0.95,3.29-1.58,4.55
		c-0.63,1.26-1.4,2.29-2.31,3.1c-0.81,0.72-1.63,1.25-2.48,1.58c-0.85,0.34-1.67,0.62-2.46,0.86l-0.84,0.29
		c-0.29,1.41-0.7,2.44-1.21,3.11c-0.51,0.67-1.14,1-1.87,1c-0.45,0-0.85-0.12-1.18-0.35c-0.33-0.23-0.49-0.59-0.49-1.08
		c0-0.73,0.24-1.39,0.73-1.98c0.48-0.59,1.23-1.07,2.24-1.45c0.07-0.29,0.12-0.78,0.14-1.45c0.02-0.67,0.04-1.44,0.06-2.29
		c0.01-0.85,0.04-1.73,0.07-2.64c0.03-0.91,0.09-1.74,0.18-2.48c0.09-0.75,0.21-1.36,0.36-1.85c0.15-0.48,0.36-0.73,0.63-0.73
		c0.18,0,0.33,0.05,0.47,0.16c0.14,0.11,0.22,0.26,0.23,0.45c0,0.1,0.01,0.23,0.02,0.37c0.01,0.22,0.04,0.56,0.07,1.01
		c0-0.01,0.01-0.04,0.04-0.07c0.18-0.41,0.36-0.74,0.56-1c0.2-0.26,0.4-0.46,0.59-0.6c0.2-0.15,0.39-0.25,0.57-0.3
		c0.18-0.05,0.36-0.08,0.52-0.08c0.79,0,1.43,0.22,1.91,0.67c0.48,0.45,0.83,1.01,1.04,1.69c0.21,0.68,0.3,1.41,0.25,2.2
		c-0.04,0.78-0.2,1.52-0.47,2.2c-0.27,0.68-0.65,1.25-1.14,1.69c-0.49,0.45-1.07,0.67-1.73,0.67c-0.43,0-0.8-0.09-1.13-0.26
		c-0.33-0.18-0.66-0.45-1-0.84c-0.03,0.5-0.06,0.97-0.09,1.43c-0.03,0.45-0.07,0.89-0.13,1.3l0.22-0.07
		c0.51-0.15,1.02-0.31,1.53-0.48c0.51-0.18,1.01-0.4,1.51-0.68c0.5-0.28,0.98-0.62,1.45-1.03c0.47-0.41,0.91-0.93,1.33-1.55
		c0.42-0.62,0.81-1.37,1.17-2.25C122.91,30.74,124.8,28.48,124.8,28.63z M112.03,41.95c0.15,0,0.27-0.06,0.36-0.18
		c0.1-0.12,0.18-0.27,0.25-0.46c0.07-0.19,0.14-0.39,0.19-0.6c0.05-0.21,0.11-0.42,0.16-0.63c-0.29,0.12-0.55,0.28-0.76,0.48
		c-0.21,0.21-0.37,0.41-0.46,0.62c-0.1,0.21-0.13,0.38-0.1,0.54C111.71,41.87,111.82,41.95,112.03,41.95z M116.78,29.44
		c-0.18,0.43-0.33,0.91-0.47,1.45c-0.14,0.54-0.25,1.12-0.32,1.74c0.01,0.09,0.05,0.25,0.12,0.47c0.07,0.23,0.17,0.46,0.3,0.7
		c0.13,0.24,0.3,0.46,0.52,0.65c0.21,0.19,0.47,0.29,0.78,0.29c0.19,0,0.37-0.16,0.54-0.48c0.17-0.32,0.31-0.72,0.43-1.2
		c0.12-0.48,0.2-1,0.24-1.56c0.04-0.56,0.04-1.08-0.01-1.56c-0.05-0.48-0.16-0.88-0.33-1.2c-0.17-0.32-0.41-0.48-0.74-0.48
		c-0.12,0-0.27,0.09-0.46,0.26C117.18,28.69,116.98,29,116.78,29.44z"/>
	<path class="st0" d="M144.75,28.08c0.15,0.04,0.26,0.12,0.33,0.24c0.07,0.12,0.11,0.25,0.11,0.4c0,0.09-0.01,0.15-0.02,0.2
		c-0.98,2.76-2.07,4.85-3.25,6.29c-1.67,2.02-3.95,2.91-6.28,1.27c-0.78-0.55-4.35-3.94-4.36-4.96c0.01,1.25,0,2.13-0.04,2.65
		c-0.04,0.52-0.07,0.79-0.07,0.8c-0.04,0.34-0.18,0.63-0.42,0.88c-0.23,0.25-0.48,0.38-0.75,0.4c-0.18,0-0.33-0.06-0.45-0.19
		c-0.12-0.12-0.19-0.27-0.21-0.45c0-0.1-0.02-0.58-0.06-1.42c-0.04-0.84-0.06-1.89-0.08-3.15c-0.04,0-0.12-0.01-0.23-0.04
		c-0.11-0.03-0.22-0.09-0.33-0.18c-0.11-0.09-0.21-0.21-0.3-0.37c-0.09-0.16-0.13-0.37-0.13-0.64c0-0.07,0-0.19,0.01-0.34
		c0.01-0.15,0.04-0.31,0.11-0.46c0.07-0.15,0.16-0.29,0.3-0.41c0.13-0.12,0.32-0.18,0.57-0.18c0-0.44,0-0.88,0-1.33
		c0-0.45,0.01-0.9,0.02-1.35c-0.79,0.72-1.54,1.42-2.24,2.1c-0.7,0.68-1.32,1.35-1.84,2c-0.52,0.65-0.93,1.28-1.23,1.88
		c-0.3,0.6-0.45,1.47-1.11,2.42c-0.66,0.95-0.33-0.06-0.46-0.19c-0.13-0.12-0.2-0.28-0.2-0.47c0-0.75,0.17-1.49,0.52-2.22
		c0.81-1.72,2.08-3.16,3.42-4.48c0.44-0.43,3.16-2.24,3.18-2.86c0.06-1.51,0.15-2.84,0.29-3.99c0.13-1.15,0.34-2.11,0.63-2.87
		c0.29-0.76,0.67-1.34,1.14-1.73c0.48-0.39,1.08-0.58,1.81-0.58c0.69,0,1.27,0.24,1.74,0.71c0.47,0.48,0.7,1.1,0.7,1.86
		c0,0.57-0.1,1.13-0.3,1.67c-0.2,0.54-0.48,1.08-0.84,1.6c-0.36,0.53-0.78,1.06-1.27,1.58c-0.49,0.53-1.03,1.06-1.62,1.6
		c-0.01,0.54-0.03,1.19-0.03,1.95c-0.01,0.75-0.01,1.75-0.01,2.98l0.04,0.02l0.31,0.09c1.26-0.7,2.45-1.55,3.57-2.54
		c1.12-0.99,2.1-2.02,2.93-3.09c0.84-1.07,1.49-2.12,1.98-3.17c0.48-1.04,0.73-1.96,0.73-2.77v-0.18c0-0.16,0.06-0.31,0.18-0.46
		c0.12-0.15,0.27-0.22,0.46-0.22c0.25,0,0.42,0.08,0.53,0.25c0.1,0.17,0.15,0.38,0.15,0.63c0,0.91-0.16,1.8-0.47,2.66
		c-0.32,0.87-0.73,1.7-1.25,2.5c-0.52,0.8-1.12,1.56-1.8,2.29c-0.68,0.73-1.38,1.4-2.11,2.03c-0.73,0.63-1.45,1.21-2.17,1.75
		c-0.72,0.54-1.38,1.01-2,1.42c0.41,0.57,0.86,1.22,1.35,1.93c0.49,0.72,0.98,1.39,1.47,2.02c0.49,0.63,0.97,1.16,1.43,1.59
		c0.46,0.43,0.88,0.65,1.24,0.65c1.01-0.04,2.01-0.72,3.01-2.03c1-1.31,1.93-3.18,2.81-5.6c0.04-0.13,0.12-0.24,0.24-0.32
		c0.12-0.08,0.24-0.12,0.37-0.12C144.56,28.03,144.63,28.05,144.75,28.08z M133.12,16.05c-0.43,0-0.74,0.19-0.95,0.57
		c-0.21,0.38-0.35,0.86-0.43,1.44c-0.08,0.58-0.12,1.21-0.11,1.89c0.01,0.68,0.01,1.32,0.01,1.9c0.88-0.84,1.54-1.62,1.98-2.36
		c0.44-0.74,0.66-1.5,0.66-2.28c0-0.35-0.11-0.63-0.34-0.85C133.72,16.16,133.44,16.05,133.12,16.05z"/>
	<path class="st0" d="M151.67,39.29c-0.53,0-0.92-0.13-1.18-0.38c-0.26-0.26-0.43-0.65-0.52-1.18c-0.09-0.53-0.11-1.2-0.07-2.02
		c0.04-0.82,0.1-1.8,0.18-2.92c-0.09,0.16-0.18,0.31-0.29,0.45c-0.1,0.14-0.21,0.28-0.31,0.43c-0.56,0.73-1.13,1.28-1.71,1.65
		c-0.34,0.21-0.66,0.35-0.97,0.43c-0.31,0.08-0.61,0.12-0.9,0.12c-0.66,0-1.22-0.22-1.67-0.65c-0.45-0.43-0.8-0.97-1.03-1.62
		c-0.23-0.64-0.35-1.34-0.35-2.1c0-0.75,0.12-1.46,0.37-2.11c0.25-0.65,0.62-1.19,1.11-1.63c0.49-0.43,1.11-0.66,1.86-0.67
		c0.15,0,0.29,0.01,0.43,0.02c0.14,0.01,0.29,0.06,0.46,0.12c0.17,0.07,0.36,0.18,0.56,0.34c0.21,0.16,0.44,0.38,0.7,0.66
		c0.54,0.57,1.03,1.3,1.47,2.2c0.4-0.89,0.7-1.87,0.92-2.92c0.03-0.18,0.12-0.31,0.27-0.41c0.15-0.1,0.32-0.13,0.49-0.1
		c0.23,0.03,0.41,0.21,0.53,0.55c0.12,0.34,0.19,0.77,0.23,1.29c0.04,0.52,0.04,1.11,0.01,1.76c-0.03,0.65-0.07,1.32-0.13,1.99
		c-0.06,0.67-0.12,1.33-0.2,1.98c-0.07,0.65-0.14,1.22-0.2,1.71c-0.06,0.5-0.1,0.9-0.12,1.21c-0.02,0.31,0,0.46,0.06,0.46
		c0.04,0,0.13-0.05,0.25-0.16c0.12-0.11,0.29-0.33,0.48-0.66c0.2-0.33,0.44-0.8,0.71-1.41c0.28-0.61,0.59-1.41,0.95-2.41
		c0.21-0.59,0.4-1.17,0.57-1.74c0.18-0.57,0.33-1.08,0.45-1.53c0.12-0.45,0.26-0.95,0.41-1.51c0.04-0.18,0.14-0.31,0.3-0.41
		c0.15-0.1,0.32-0.12,0.49-0.08c0.18,0.04,0.31,0.14,0.41,0.3c0.1,0.15,0.12,0.32,0.08,0.49c-0.15,0.59-0.29,1.12-0.43,1.59
		c-0.14,0.48-0.3,1.02-0.48,1.62c-0.18,0.6-0.38,1.21-0.6,1.82c-0.26,0.75-0.52,1.41-0.76,2c-0.24,0.59-0.49,1.09-0.74,1.52
		C153.1,38.66,152.39,39.29,151.67,39.29z M146.16,28.38c-0.16,0-0.31,0.15-0.44,0.45c-0.13,0.3-0.24,0.67-0.32,1.12
		c-0.08,0.45-0.14,0.93-0.16,1.46c-0.03,0.53-0.02,1.02,0.02,1.47c0.04,0.45,0.13,0.84,0.26,1.15c0.13,0.32,0.31,0.48,0.53,0.49
		c0.25,0.03,0.58-0.08,1-0.32c0.42-0.24,0.88-0.69,1.4-1.35c0.22-0.28,0.43-0.59,0.64-0.95c-0.25-0.6-0.52-1.14-0.8-1.6
		c-0.29-0.47-0.58-0.86-0.89-1.19C146.93,28.63,146.52,28.38,146.16,28.38z"/>
	<path class="st0" d="M160.14,43.16c-0.38,0-0.74-0.07-1.07-0.21c-0.33-0.14-0.62-0.33-0.86-0.57c-0.24-0.24-0.43-0.53-0.57-0.87
		c-0.14-0.34-0.21-0.71-0.21-1.12c0-0.66,0.16-1.29,0.48-1.9c0.32-0.61,0.74-1.19,1.24-1.74c0.51-0.55,1.06-1.07,1.67-1.57
		c0.61-0.5,1.2-0.97,1.77-1.43c-0.01-0.4-0.03-0.78-0.04-1.17c-0.01-0.38-0.04-0.75-0.07-1.1c-0.21,0.75-0.47,1.4-0.78,1.96
		c-0.32,0.56-0.66,1.02-1.03,1.4c-0.37,0.37-0.76,0.65-1.15,0.84c-0.4,0.18-0.78,0.27-1.17,0.27c-0.81,0-1.46-0.19-1.96-0.58
		c-0.5-0.39-0.88-0.88-1.14-1.46c-0.26-0.59-0.42-1.22-0.46-1.91c-0.04-0.69-0.01-1.33,0.11-1.91c0.12-0.59,0.3-1.07,0.55-1.46
		c0.25-0.39,0.53-0.58,0.86-0.58c0.38,0,0.64,0.16,0.79,0.48c0.15,0.32,0.23,0.73,0.26,1.22c0.03,0.49,0.03,1.02,0,1.59
		c-0.03,0.57-0.03,1.1,0,1.59c0.03,0.49,0.11,0.9,0.24,1.22c0.13,0.32,0.38,0.48,0.75,0.48c0.48,0,0.97-0.29,1.46-0.88
		c0.49-0.59,0.96-1.43,1.42-2.53c0.19-0.45,0.36-0.9,0.49-1.34c0.14-0.44,0.26-0.84,0.35-1.19c0.1-0.35,0.19-0.75,0.27-1.19
		c0.03-0.16,0.11-0.29,0.23-0.38c0.12-0.1,0.27-0.14,0.43-0.14h0.02c0.29,0,0.52,0.09,0.69,0.26c0.17,0.18,0.31,0.46,0.42,0.85
		c0.11,0.39,0.2,0.89,0.27,1.49c0.07,0.61,0.17,1.34,0.29,2.19c0.37-0.31,0.68-0.58,0.96-0.82c0.27-0.24,0.5-0.49,0.69-0.74
		c0.19-0.25,0.35-0.51,0.48-0.77c0.13-0.26,0.25-0.57,0.35-0.92c0.1-0.32,0.31-0.48,0.64-0.48c0.2,0,0.37,0.07,0.48,0.22
		c0.12,0.15,0.18,0.3,0.18,0.46c0,0.07-0.01,0.12-0.02,0.15c-0.15,0.51-0.33,0.97-0.55,1.36c-0.22,0.4-0.48,0.77-0.79,1.11
		c-0.31,0.34-0.66,0.68-1.06,1.01c-0.4,0.33-0.84,0.69-1.34,1.09c0,1.52-0.1,2.89-0.31,4.09c-0.21,1.2-0.51,2.22-0.9,3.06
		c-0.4,0.84-0.88,1.47-1.45,1.91S160.86,43.16,160.14,43.16z M162.51,35.29c-0.44,0.35-0.88,0.73-1.33,1.14
		c-0.45,0.41-0.85,0.84-1.22,1.28c-0.37,0.44-0.66,0.89-0.89,1.34c-0.23,0.45-0.34,0.9-0.34,1.34c0,0.41,0.13,0.75,0.38,1.03
		c0.26,0.28,0.6,0.42,1.02,0.42c0.64,0,1.18-0.54,1.6-1.6C162.17,39.16,162.42,37.52,162.51,35.29z"/>
	<path class="st0" d="M176.58,39.29c-0.73,0-1.5-0.35-2.29-1.06c-0.4-0.37-0.76-0.73-1.1-1.1c-0.34-0.37-0.63-0.77-0.88-1.21
		c-0.21,0.12-0.51,0.21-0.91,0.27s-0.82,0.08-1.25,0.04c-0.43-0.04-0.84-0.12-1.22-0.25c-0.38-0.13-0.66-0.34-0.84-0.62
		c-0.15-0.23-0.22-0.48-0.23-0.75c-0.01-0.26,0.06-0.52,0.21-0.77c0.19-0.34,0.47-0.6,0.85-0.79c0.37-0.19,0.8-0.29,1.29-0.29
		c0.35,0,0.72,0.05,1.1,0.15c0.38,0.1,0.72,0.29,1.01,0.57l0.02-0.02c0.29-0.35,0.56-0.74,0.79-1.15c0.23-0.42,0.46-0.84,0.67-1.28
		c0.21-0.43,0.43-0.86,0.65-1.29c0.22-0.42,0.47-0.84,0.75-1.23c-0.43-0.01-0.85-0.06-1.29-0.13c-0.43-0.07-0.86-0.15-1.29-0.22
		c-0.69-0.13-1.28-0.23-1.77-0.3c-0.49-0.07-0.91-0.06-1.25,0.02c-0.34,0.08-0.62,0.24-0.81,0.47c-0.2,0.23-0.35,0.58-0.45,1.03
		c-0.03,0.18-0.12,0.32-0.28,0.42c-0.15,0.1-0.33,0.13-0.52,0.09c-0.18-0.03-0.31-0.12-0.41-0.27c-0.1-0.15-0.13-0.32-0.1-0.49
		c0.34-1.48,1.14-2.33,2.42-2.55c0.51-0.1,1.06-0.11,1.63-0.02c0.57,0.09,1.17,0.19,1.78,0.31c0.7,0.13,1.39,0.24,2.06,0.32
		c0.67,0.08,1.25,0.02,1.75-0.19c0.21-0.09,0.38-0.11,0.53-0.07c0.15,0.04,0.25,0.14,0.31,0.29c0.06,0.15,0.07,0.33,0.03,0.54
		c-0.04,0.21-0.13,0.45-0.28,0.71c-0.28,0.47-0.54,0.97-0.78,1.51c-0.24,0.54-0.5,1.08-0.77,1.64c-0.27,0.56-0.57,1.11-0.89,1.65
		c-0.32,0.54-0.7,1.04-1.12,1.49c0.2,0.22,0.42,0.48,0.66,0.78c0.23,0.3,0.48,0.59,0.74,0.86c0.26,0.27,0.52,0.51,0.78,0.7
		c0.26,0.2,0.53,0.3,0.79,0.3c0.32,0,0.63-0.15,0.92-0.44c0.29-0.29,0.56-0.65,0.8-1.07c0.24-0.42,0.45-0.85,0.64-1.31
		c0.18-0.45,0.33-0.84,0.43-1.14c0.19-0.6,0.36-1.19,0.52-1.78c0.15-0.59,0.28-1.11,0.38-1.56c0.1-0.45,0.2-0.97,0.31-1.54
		c0.03-0.19,0.12-0.34,0.27-0.44c0.15-0.1,0.32-0.14,0.49-0.11c0.19,0.03,0.34,0.12,0.44,0.27c0.1,0.15,0.14,0.32,0.11,0.49
		c0,0.03-0.03,0.19-0.09,0.48c-0.06,0.29-0.14,0.68-0.25,1.15c-0.11,0.48-0.24,1.01-0.4,1.61c-0.15,0.59-0.33,1.2-0.54,1.81
		c-0.48,1.51-1,2.7-1.56,3.56C178.38,38.67,177.52,39.29,176.58,39.29z M170.21,34.1c-0.29,0-0.52,0.04-0.67,0.13
		c-0.15,0.09-0.26,0.18-0.32,0.26c-0.03,0.09-0.03,0.15,0,0.18c0.03,0.06,0.12,0.12,0.26,0.18c0.15,0.06,0.37,0.07,0.68,0.04
		c0.35-0.01,0.67-0.11,0.97-0.29c-0.16-0.16-0.32-0.29-0.47-0.37C170.5,34.14,170.35,34.1,170.21,34.1z"/>
</g>
</svg>
